{"title":"Dj TekTronik - Best of Electro 4 Life Episode 1to10","uid":10454924,"size":41697028792,"categoryP":"video","categoryS":"music_videos","magnet":"?xt=urn:btih:f038c06912bf2ba10383750413df887e54f42dba&amp;dn=Dj+TekTronik+-+Best+of+Electro+4+Life+Episode+1to10&amp;tr=udp%3A%2F%2Ftracker.openbittorrent.com%3A80&amp;tr=udp%3A%2F%2Fopen.demonii.com%3A1337&amp;tr=udp%3A%2F%2Ftracker.coppersurfer.tk%3A6969&amp;tr=udp%3A%2F%2Fexodus.desync.com%3A6969","seeders":1,"leechers":1,"uploader":"DeejayTekTronik","files":-1,"time":1404062795,"description":"General\nComplete name                            : Dj TekTronik - Best Of Electro 4 Life 1.mp4\nFormat                                   : MPEG-4\nFormat profile                           : Base Media\nCodec ID                                 : isom\nFile size                                : 38.8 GiB\nDuration                                 : 2h 19mn\nOverall bit rate mode                    : Variable\nOverall bit rate                         : 39.8 Mbps\nEncoded date                             : UTC 1970-01-01 00:00:00\nTagged date                              : UTC 1970-01-01 00:00:00\nWriting application                      : AVM.EXE\n\nVideo\nID                                       : 1\nFormat                                   : AVC\nFormat/Info                              : Advanced Video Codec\nFormat profile                           : &lt;a class=&quot;__cf_email__&quot; href=&quot;/cdn-cgi/l/email-protection&quot; data-cfemail=&quot;296b485a4c4540474c69651c0718&quot;&gt;[email&amp;#160;protected]&lt;/a&gt;&lt;script cf-hash='f9e31' type=&quot;text/javascript&quot;&gt;\n/* &lt;![CDATA[ */!function(){try{var t=&quot;currentScript&quot;in document?document.currentScript:function(){for(var t=document.getElementsByTagName(&quot;script&quot;),e=t.length;e--;)if(t[e].getAttribute(&quot;cf-hash&quot;))return t[e]}();if(t&amp;&amp;t.previousSibling){var e,r,n,i,c=t.previousSibling,a=c.getAttribute(&quot;data-cfemail&quot;);if(a){for(e=&quot;&quot;,r=parseInt(a.substr(0,2),16),n=2;a.length-n;n+=2)i=parseInt(a.substr(n,2),16)^r,e+=String.fromCharCode(i);e=document.createTextNode(e),c.parentNode.replaceChild(e,c)}}}catch(u){}}();/* ]]&gt; */&lt;/script&gt;\nFormat settings, CABAC                   : No\nFormat settings, ReFrames                : 1 frame\nFormat settings, GOP                     : M=1, N=12\nCodec ID                                 : avc1\nCodec ID/Info                            : Advanced Video Coding\nDuration                                 : 2h 19mn\nBit rate                                 : 39.6 Mbps\nWidth                                    : 1 920 pixels\nHeight                                   : 1 080 pixels\nDisplay aspect ratio                     : 16:9\nFrame rate mode                          : Constant\nFrame rate                               : 59.940 fps\nOriginal frame rate                      : 60.000 fps\nColor space                              : YUV\nChroma subsampling                       : 4:2:0\nBit depth                                : 8 bits\nScan type                                : Progressive\nBits/(Pixel*Frame)                       : 0.319\nStream size                              : 38.7 GiB (100%)\nEncoded date                             : UTC 1970-01-01 00:00:00\nTagged date                              : UTC 1970-01-01 00:00:00\n\nAudio\nID                                       : 2\nFormat                                   : AAC\nFormat/Info                              : Advanced Audio Codec\nFormat profile                           : LC\nCodec ID                                 : 40\nDuration                                 : 2h 19mn\nBit rate mode                            : Variable\nBit rate                                 : 152 Kbps\nChannel(s)                               : 2 channels\nChannel positions                        : Front: L R\nSampling rate                            : 44.1 KHz\nCompression mode                         : Lossy\nStream size                              : 152 MiB (0%)\nEncoded date                             : UTC 1970-01-01 00:00:00\nTagged date                              : UTC 1970-01-01 00:00:00\n\n","torrent":{"xt":"urn:btih:f038c06912bf2ba10383750413df887e54f42dba","amp;dn":"Dj+TekTronik+-+Best+of+Electro+4+Life+Episode+1to10","amp;tr":["udp%3A%2F%2Ftracker.openbittorrent.com%3A80","udp%3A%2F%2Fopen.demonii.com%3A1337","udp%3A%2F%2Ftracker.coppersurfer.tk%3A6969","udp%3A%2F%2Fexodus.desync.com%3A6969"],"infoHash":"f038c06912bf2ba10383750413df887e54f42dba","infoHashBuffer":{"type":"Buffer","data":[240,56,192,105,18,191,43,161,3,131,117,4,19,223,136,126,84,244,45,186]},"announce":[],"urlList":[]}}